<?xml version="1.0" encoding="iso-8859-1"?>
<!-- Generator: Adobe Illustrator 19.0.0, SVG Export Plug-In . SVG Version: 6.00 Build 0)  -->
<svg fill="#9AC2FF" opacity="0.25" xmlns="http://www.w3.org/2000/svg" xmlns:xlink="http://www.w3.org/1999/xlink" version="1.1" id="Layer_1" x="0px" y="0px" viewBox="0 0 512 512" style="enable-background:new 0 0 512 512;" xml:space="preserve">
<g>
	<g>
		<g>
			<path d="M508.875,248.458L448,187.583V74.667C448,68.771,443.229,64,437.333,64H324.417L263.542,3.125     c-4.167-4.167-10.917-4.167-15.083,0L187.583,64H74.667C68.771,64,64,68.771,64,74.667v112.917L3.125,248.458     c-4.167,4.167-4.167,10.917,0,15.083L64,324.417v112.917C64,443.229,68.771,448,74.667,448h112.917l60.875,60.875     c2.083,2.083,4.813,3.125,7.542,3.125s5.458-1.042,7.542-3.125L324.417,448h112.917c5.896,0,10.667-4.771,10.667-10.667V324.417     l60.875-60.875C513.042,259.375,513.042,252.625,508.875,248.458z M429.792,312.458c-2,2-3.125,4.708-3.125,7.542v106.667H320     c-2.833,0-5.542,1.125-7.542,3.125L256,486.25l-56.458-56.458c-2-2-4.708-3.125-7.542-3.125H85.333V320     c0-2.833-1.125-5.542-3.125-7.542L25.75,256l56.458-56.458c2-2,3.125-4.708,3.125-7.542V85.333H192     c2.833,0,5.542-1.125,7.542-3.125L256,25.75l56.458,56.458c2,2,4.708,3.125,7.542,3.125h106.667V192     c0,2.833,1.125,5.542,3.125,7.542L486.25,256L429.792,312.458z"/>
			<path d="M256,84.708c-94.448,0-171.292,76.844-171.292,171.292S161.552,427.292,256,427.292S427.292,350.448,427.292,256     S350.448,84.708,256,84.708z M256,405.958c-82.688,0-149.958-67.271-149.958-149.958S173.313,106.042,256,106.042     S405.958,173.313,405.958,256S338.688,405.958,256,405.958z"/>
		</g>
	</g>
</g>
<g>
</g>
<g>
</g>
<g>
</g>
<g>
</g>
<g>
</g>
<g>
</g>
<g>
</g>
<g>
</g>
<g>
</g>
<g>
</g>
<g>
</g>
<g>
</g>
<g>
</g>
<g>
</g>
<g>
</g>
</svg>
